<?xml version="1.0" encoding="utf-8"?>
<!-- Generator: Adobe Illustrator 16.0.0, SVG Export Plug-In . SVG Version: 6.00 Build 0)  -->
<!DOCTYPE svg PUBLIC "-//W3C//DTD SVG 1.1//EN" "http://www.w3.org/Graphics/SVG/1.1/DTD/svg11.dtd">
<svg version="1.1" id="Layer_1" xmlns="http://www.w3.org/2000/svg" xmlns:xlink="http://www.w3.org/1999/xlink" x="0px" y="0px"
	 width="100px" height="100px" viewBox="0 0 100 100" enable-background="new 0 0 100 100" xml:space="preserve">
<g id="Your_Icon">
	<polygon fill="#FFFFFF" points="79.84,71.4 54.844,71.4 53.448,71.4 53.448,72.795 53.448,76.706 53.448,78.1 54.844,78.1 
		79.84,78.1 81.234,78.1 81.234,76.706 81.234,72.795 81.234,71.4 	"/>
	<polygon fill="#FFFFFF" points="41.517,22.918 19.528,34.11 18.766,34.497 18.766,35.353 18.766,38.36 18.766,39.217 19.53,39.604 
		41.518,50.747 43.544,51.773 43.544,49.502 43.544,46.297 43.544,45.44 42.779,45.052 26.509,36.832 42.779,28.611 43.544,28.225 
		43.544,27.366 43.544,24.162 43.544,21.887 	"/>
	<polygon fill="#FFFFFF" points="67.341,21.887 63.271,21.887 62.377,21.887 62.003,22.701 37.585,76.125 36.683,78.1 38.854,78.1 
		42.925,78.1 43.822,78.1 44.193,77.283 68.61,23.861 69.512,21.887 	"/>
</g>
</svg>
