<?xml version="1.0" encoding="utf-8"?>
<!-- Generator: Adobe Illustrator 18.1.1, SVG Export Plug-In . SVG Version: 6.00 Build 0)  -->
<svg version="1.1" id="Layer_1" xmlns="http://www.w3.org/2000/svg" xmlns:xlink="http://www.w3.org/1999/xlink" x="0px" y="0px"
	 viewBox="0 0 960 560" enable-background="new 0 0 960 560" xml:space="preserve">
<circle opacity="0.15" fill="none" stroke="#FFFFFF" stroke-width="3" stroke-miterlimit="10" cx="56.3" cy="517.1" r="104.8"/>
<circle opacity="0.15" fill="none" stroke="#FFFFFF" stroke-width="3" stroke-miterlimit="10" cx="161.3" cy="549.1" r="104.8"/>
<circle opacity="0.15" fill="none" stroke="#FFFFFF" stroke-width="3" stroke-miterlimit="10" cx="30.9" cy="444.6" r="202.4"/>
<circle opacity="0.15" fill="#FFFFFF" cx="765.5" cy="90.8" r="47.5"/>
<circle opacity="0.15" fill="#FFFFFF" cx="890.5" cy="138.6" r="18.9"/>
<circle opacity="0.15" fill="#FFFFFF" cx="788.1" cy="209" r="26.6"/>
<polygon opacity="0.15" fill="none" stroke="#FFFFFF" stroke-width="33" stroke-miterlimit="10" points="751.7,684.5 662.9,530.5 
	751.7,376.5 929.2,376.5 1018,530.5 929.2,684.5 "/>
<polygon opacity="0.15" fill="none" stroke="#FFFFFF" stroke-width="33" stroke-miterlimit="10" points="775.6,643.5 710.7,530.5 
	775.6,417.5 905.3,417.5 970.2,530.5 905.3,643.5 "/>
<line opacity="0.15" fill="none" stroke="#FFFFFF" stroke-miterlimit="10" x1="782.9" y1="182.9" x2="772.9" y2="138.2"/>
<line opacity="0.15" fill="none" stroke="#FFFFFF" stroke-miterlimit="10" x1="809.5" y1="193.2" x2="875.9" y2="150.6"/>
<polygon opacity="0.15" fill="none" stroke="#FFFFFF" stroke-width="33" stroke-miterlimit="10" points="804.7,592.5 768.9,530.5 
	804.7,468.5 876.2,468.5 912,530.5 876.2,592.5 "/>
<polygon opacity="0.15" fill="none" stroke="#FFFFFF" stroke-width="33" stroke-miterlimit="10" points="824.7,557.5 809,530.5 
	824.7,503.5 856.2,503.5 871.9,530.5 856.2,557.5 "/>
<line opacity="0.15" fill="none" stroke="#FFFFFF" stroke-miterlimit="10" x1="30.9" y1="-21.6" x2="1135.5" y2="434.7"/>
<line opacity="0.15" fill="none" stroke="#FFFFFF" stroke-miterlimit="10" x1="30.9" y1="-21.6" x2="662.5" y2="593.9"/>
<line opacity="0.15" fill="none" stroke="#FFFFFF" stroke-miterlimit="10" x1="30.9" y1="-21.6" x2="504.2" y2="703.8"/>
<line opacity="0.15" fill="none" stroke="#FFFFFF" stroke-miterlimit="10" x1="30.9" y1="-21.6" x2="1135.4" y2="36.4"/>
</svg>
