<?xml version="1.0" encoding="utf-8"?>
<!-- Generator: Adobe Illustrator 16.0.0, SVG Export Plug-In . SVG Version: 6.00 Build 0)  -->
<!DOCTYPE svg PUBLIC "-//W3C//DTD SVG 1.1//EN" "http://www.w3.org/Graphics/SVG/1.1/DTD/svg11.dtd">
<svg version="1.1" id="Layer_1" xmlns="http://www.w3.org/2000/svg" xmlns:xlink="http://www.w3.org/1999/xlink" x="0px" y="0px"
	 width="100px" height="100px" viewBox="0 0 100 100" enable-background="new 0 0 100 100" xml:space="preserve">
<g id="Captions">
	<rect x="-192" width="185" height="99"/>
	<rect y="-36" width="100" height="30"/>
	<text transform="matrix(1 0 0 1 66 -19.5)" font-family="'Helvetica'" font-size="2.4">http://thenounproject.com</text>
	<text transform="matrix(1 0 0 1 7.166 -24.5)" font-family="'Helvetica-Bold'" font-size="6.1578">The Noun Project</text>
	<text transform="matrix(1 0 0 1 8.2861 -19.7002)" font-family="'Helvetica-Bold'" font-size="4">Icon Template</text>
	<text transform="matrix(1 0 0 1 -178.5 10.5)" font-family="'Helvetica-Bold'" font-size="6.1578">Reminders</text>
	<line fill="none" stroke="#FFFFFF" stroke-miterlimit="10" x1="8" y1="-14.5" x2="18" y2="-14.5"/>
	<line fill="none" stroke="#FFFFFF" stroke-miterlimit="10" x1="-179" y1="16.5" x2="-162" y2="16.5"/>
	<g>
		<g>
			<g>
				<rect x="-170.802" y="31.318" width="8.721" height="8.642"/>
				<path d="M-164.455,42.312h4.747v-4.703h-4.747V42.312z M-159.266,42.749h-5.63V37.17h5.63V42.749L-159.266,42.749z
					 M-166.221,44.062h8.279v-8.203h-8.279V44.062L-166.221,44.062z M-157.5,44.5h-9.163v-9.079h9.163V44.5L-157.5,44.5z"/>
				<polygon points="-166.149,44.133 -166.292,43.991 -158.013,35.787 -157.871,35.929 				"/>
			</g>
		</g>
	</g>
	<rect x="-179" y="58" fill="none" width="35" height="32.5"/>
	<text transform="matrix(1 0 0 1 -179 60.1299)" font-family="'Helvetica-Bold'" font-size="3">Strokes</text>
	<text transform="matrix(1 0 0 1 -179 65.1299)" font-family="'Helvetica'" font-size="2.4">Try to keep strokes at 4px</text>
	<text transform="matrix(1 0 0 1 -179 70.1299)" font-family="'Helvetica'" font-size="2.4">Minimum stroke weight is 2px</text>
	<text transform="matrix(1 0 0 1 -179 74.6299)" font-family="'Helvetica'" font-size="2.4">For thicker strokes use even </text>
	<text transform="matrix(1 0 0 1 -179 77.6299)" font-family="'Helvetica'" font-size="2.4">numbers: 6px, 8px etc.</text>
	<text transform="matrix(1 0 0 1 -179 82.1299)" font-family="'Helvetica-Bold'" font-size="2.4">Remember to expand strokes </text>
	<text transform="matrix(1 0 0 1 -179 85.1299)" font-family="'Helvetica-Bold'" font-size="2.4">before saving as an SVG </text>
	<rect x="-136.5" y="58" fill="none" width="35" height="32.5"/>
	<text transform="matrix(1 0 0 1 -136.5 60.1299)" font-family="'Helvetica-Bold'" font-size="3">Size</text>
	<text transform="matrix(1 0 0 1 -136.5 65.1299)" font-family="'Helvetica'" font-size="2.4">Cannot be wider or taller than </text>
	<text transform="matrix(1 0 0 1 -136.5 68.6299)" font-family="'Helvetica'" font-size="2.4">100px (artboard size)</text>
	<text transform="matrix(1 0 0 1 -136.5 73.6299)" font-family="'Helvetica'" font-size="2.4">Scale your icon to fill as much of </text>
	<text transform="matrix(1 0 0 1 -136.5 76.6299)" font-family="'Helvetica'" font-size="2.4">the artboard as possible</text>
	<rect x="-94" y="58" fill="none" width="35" height="32.5"/>
	<text transform="matrix(1 0 0 1 -94 60.1299)" font-family="'Helvetica-Bold'" font-size="3">Ungroup</text>
	<text transform="matrix(1 0 0 1 -94 65.1299)" font-family="'Helvetica'" font-size="2.4">If your design has more than one </text>
	<text transform="matrix(1 0 0 1 -94 68.1299)" font-family="'Helvetica'" font-size="2.4">shape, make sure to ungroup</text>
	<rect x="-50" y="58" fill="none" width="35" height="32.5"/>
	<text transform="matrix(1 0 0 1 -50 60.1299)" font-family="'Helvetica-Bold'" font-size="3">Save as</text>
	<text transform="matrix(1 0 0 1 -50 65.1299)" font-family="'Helvetica'" font-size="2.4">Save as .SVG and make sure “Use </text>
	<text transform="matrix(1 0 0 1 -50 68.1299)" font-family="'Helvetica'" font-size="2.4">Artboards” is checked</text>
	<text transform="matrix(1.0074 0 0 1 -125.5425 30.5938)" font-family="'Helvetica'" font-size="2.5731">100px</text>
	<text transform="matrix(1.0074 0 0 1 -40.9995 39)" font-family="'Helvetica-Bold'" font-size="5.1462">.SVG</text>
	<rect x="-126.514" y="34.815" width="10.261" height="10.185"/>
	<rect x="-126.477" y="31.766" width="0.522" height="2.337"/>
	<rect x="-116.813" y="31.766" width="0.523" height="2.337"/>
	<rect x="-127" y="32.337" width="11.233" height="0.572"/>
	<g>
		<rect x="-83.805" y="33.844" width="10.305" height="10.156"/>
		<rect x="-76.809" y="28.707" width="3.308" height="3.261"/>
	</g>
	<rect x="-178.5" y="22.5" stroke="#FFFFFF" stroke-miterlimit="10" width="30" height="30"/>
	<rect x="-136.5" y="22.5" stroke="#FFFFFF" stroke-miterlimit="10" width="30" height="30"/>
	<rect x="-93.5" y="22.5" stroke="#FFFFFF" stroke-miterlimit="10" width="30" height="30"/>
	<rect x="-49.5" y="22.5" stroke="#FFFFFF" stroke-miterlimit="10" width="30" height="30"/>
</g>
<g id="Your_Icon">
	<path fill="#FFFFFF" d="M60.018,29.408c0.573,0.846,1.551,1.215,1.572,1.768c0.109,2.616,2.049,2.768,2.166,4.166
		c0.135,1.605-0.094,1.396-0.094,2.604c0,0.274-0.039,0.442-0.098,0.557c-0.021,1.135,7.737,5.718,7.737,5.718l0.313,1.354
		l0.625-1.303c0,0,7.711-3.938,7.871-5.94l0,0c-0.03-0.063-0.057-0.146-0.079-0.257c-0.208-1.08-0.118-0.902-0.046-2.286
		c0.08-1.518,1.992-0.865,2.365-3.694c0.071-0.55,0.603-1.908,1.176-2.758c0.566-0.848,1.498-2.969,1.498-4.664
		c0-1.697-0.43-1.343-0.645-2.827c-0.303-2.1-0.615-1.718-0.712-6.787c-0.071-3.745-7.226-8.427-11.79-7.42
		c-7.044,1.558-6.201-0.195-8.298,1.118c-1.558,0.973-3.108,3.124-3.563,4.959c-1.225,4.924-1.144,6.152-1.144,8.271
		c0,2.121-0.356,1.697-0.356,3.395C58.518,27.076,59.445,28.559,60.018,29.408z"/>
	<path fill="#FFFFFF" d="M59.541,64.926c-6.43-3.455-14.439-5.318-17.138-7.359c-0.994-0.547-0.829-2.396-1.065-3.651
		c-0.238-1.258-0.829-0.188-1.024-1.19c-0.231-1.201-0.131-1.004-0.05-2.542c0.088-1.686,2.212-0.961,2.627-4.105
		c0.08-0.61,0.669-2.119,1.306-3.063c0.632-0.94,1.667-3.299,1.667-5.183c0-1.885-0.479-1.491-0.716-3.142
		c-0.336-2.332-0.685-1.908-0.791-7.54c-0.081-4.161-8.028-9.363-13.101-8.244c-7.826,1.729-6.89-0.218-9.219,1.241
		c-1.729,1.083-3.455,3.472-3.96,5.511c-1.36,5.471-1.27,6.835-1.27,9.19s-0.398,1.886-0.398,3.771c0,1.884,1.032,3.531,1.668,4.475
		c0.637,0.94,1.722,1.35,1.747,1.965c0.121,2.907,2.276,3.075,2.406,4.629c0.15,1.785-0.104,1.551-0.104,2.893
		c0,1.335-0.793,0.472-1.033,1.728c-0.237,1.256,0.042,2.566-1.031,3.377c-2.699,2.043-10.732,3.681-17.105,7.242
		c-2.289,1.277-2.302,2.827-2.461,3.85C0.335,69.794,0,100,0,100h62.5c0,0-0.338-30.204-0.498-31.227
		C61.846,67.753,61.662,66.066,59.541,64.926z"/>
	<g>
		<path fill="#FFFFFF" d="M46.1,49.205c-0.453,0.939-1.019,1.619-1.544,2.102c0.337,0.539,0.582,1.168,0.714,1.869
			c0.097,0.514,0.143,1.01,0.183,1.447c0.004,0.045,0.008,0.093,0.013,0.145c1.207,0.625,3.402,1.43,5.382,2.154
			c3.321,1.219,7.088,2.6,10.588,4.48c1.739,0.936,2.785,2.143,3.432,3.298C62.305,54.093,62,44.543,62,41.875V41.87
			c0,0.248-0.109,0.476-0.368,0.669c-2.43,1.839-9.571,3.313-15.308,6.518C46.239,49.104,46.178,49.156,46.1,49.205z"/>
		<path fill="#FFFFFF" d="M99.887,81c-0.102-12-0.246-27.734-0.334-28.293c-0.143-0.918-0.307-2.527-2.215-3.557
			c-5.787-3.109-12.996-4.834-15.426-6.67c-0.23-0.128-0.391-0.359-0.506-0.614l-0.022,0.021c0.495,3.65-1.901,17.574-7.202,33.707
			c0.113-5.662,0.223-11.314,0.193-14.248C74.324,55.93,74.09,55,72.488,51h-0.006c0.642-1,1.164-1.676,1.164-2.285
			c0-1.02-0.524-1.139-2.5-1.32c-1.051-0.098-2.554,0.088-2.447,1.108c0.055,0.535,0.439,1.56,0.943,2.386
			c-1.726,3.891-1.727,6.346-1.675,10.563c0.021,1.528-0.1,7.28-0.04,13.171c-0.723-1.87-1.354-3.762-1.914-5.645
			c0.075,1.694,0.207,7.151,0.43,26.021H100V81H99.887z"/>
		<path fill="#FFFFFF" d="M59.541,64.926c-5.421-2.914-11.952-4.693-15.49-6.404c-0.06,5.791-0.125,14.881-0.188,22.479H44v12.873
			C44,94.596,43.992,95,43.992,95L44,94.996V95h18.441c-0.104-8.625-0.32-25.467-0.439-26.227
			C61.846,67.753,61.662,66.066,59.541,64.926z"/>
	</g>
	<g>
		<path d="M183.018,18.408c0.573,0.846,1.551,1.215,1.572,1.768c0.109,2.616,2.049,2.768,2.166,4.166
			c0.135,1.605-0.094,1.396-0.094,2.604c0,0.274-0.039,0.442-0.098,0.557c-0.021,1.135,7.738,5.718,7.738,5.718l0.312,1.354
			l0.625-1.303c0,0,7.711-3.938,7.871-5.94l0,0c-0.03-0.063-0.057-0.146-0.079-0.257c-0.208-1.08-0.118-0.902-0.046-2.286
			c0.08-1.518,1.992-0.865,2.365-3.694c0.071-0.55,0.603-1.908,1.176-2.758c0.566-0.848,1.498-2.969,1.498-4.664
			c0-1.697-0.43-1.343-0.645-2.827c-0.303-2.1-0.615-1.718-0.712-6.787c-0.071-3.745-7.226-8.427-11.79-7.42
			c-7.044,1.558-6.201-0.195-8.298,1.118c-1.558,0.973-3.108,3.124-3.563,4.959c-1.225,4.924-1.144,6.152-1.144,8.271
			c0,2.121-0.356,1.697-0.356,3.395C181.518,16.076,182.445,17.559,183.018,18.408z"/>
		<path d="M204.406,30.843l-0.022,0.032c0.564,4.163-2.632,21.701-9.612,40.626L223,84c0,0-0.303-41.559-0.447-42.479
			c-0.143-0.919-0.307-2.435-2.215-3.464c-5.787-3.109-12.996-4.787-15.426-6.623C204.682,31.306,204.521,31.098,204.406,30.843z"/>
		<path d="M185.346,30.875V30.87c-0.117,0.248-0.283,0.476-0.541,0.669c-2.43,1.839-9.658,3.313-15.395,6.518
			c-2.061,1.15-2.071,2.545-2.215,3.464C167.051,42.438,166.75,84,166.75,84l28.021-12.499
			C186.047,55.954,184.781,35.038,185.346,30.875z"/>
	</g>
	<path d="M194.146,36.452c1.976,0.182,2.5,0.358,2.5,1.378s-1.457,3.237-2.5,3.357c-1.041,0.12-2.345-2.638-2.447-3.656
		C191.594,36.512,193.096,36.354,194.146,36.452z"/>
	<path d="M191.277,77.75h5.682c0.053-7.604,0.469-21.876,0.416-27.291c-0.051-5.416-0.285-6.653-1.887-10.228l-2.846-0.329
		c-1.726,3.891-1.727,6.338-1.675,10.557C191.008,53.543,191.186,73.799,191.277,77.75z"/>
	<rect x="166.758" y="69.626" width="56.242" height="14.374"/>
	<g>
		<path d="M120.979,91L121,88.979c0.102-9.125,0.354-30.465,0.52-31.515l0.033-0.235c0.162-1.188,0.465-3.396,3.43-5.049
			c3.481-1.947,7.304-3.296,10.675-4.485c2.653-0.936,5.159-1.819,6.196-2.605c0.067-0.116,0.104-0.593,0.127-0.908
			c0.028-0.373,0.062-0.795,0.146-1.246c0.18-0.942,0.611-1.5,1.01-1.834c0.021-0.427,0.062-0.702,0.094-0.919
			c0.041-0.281,0.071-0.488,0.015-1.228c-0.077-0.095-0.235-0.253-0.354-0.374c-0.677-0.676-1.771-1.772-2.021-3.872
			c-0.022-0.019-0.047-0.038-0.07-0.058c-0.394-0.327-0.931-0.775-1.379-1.435c-0.553-0.82-2.013-2.986-2.013-5.597
			c0-1.045,0.107-1.576,0.238-2.114c0.086-0.351,0.16-0.654,0.16-1.658l-0.002-0.409c-0.005-2.168-0.009-3.881,1.33-9.264
			c0.629-2.532,2.663-5.36,4.84-6.723c1.01-0.633,1.793-0.892,2.696-0.892c0.249,0,0.511,0.021,0.82,0.051
			c0.297,0.028,0.659,0.063,1.157,0.063c1.285,0,2.978-0.236,5.175-0.721c0.604-0.134,1.252-0.202,1.923-0.202
			c5.73,0,13.507,5.122,13.609,10.359c0.07,3.848,0.252,4.678,0.463,5.639c0.1,0.456,0.203,0.936,0.308,1.655
			c0.063,0.44,0.127,0.581,0.231,0.814c0.275,0.613,0.504,1.232,0.504,2.613c0,2.416-1.23,5.146-2.008,6.299
			c-0.496,0.736-0.932,1.916-0.981,2.217c-0.354,2.677-1.779,3.64-2.546,4.157c-0.026,0.019-0.055,0.036-0.081,0.053
			c-0.019,0.29-0.035,0.511-0.05,0.692c-0.014,0.177-0.022,0.288-0.021,0.389c0.492,0.329,0.939,0.904,1.129,1.904
			c0.073,0.39,0.117,0.824,0.158,1.267c0.032,0.349,0.083,0.899,0.159,1.171c1.104,0.828,3.743,1.796,6.538,2.82
			c3.26,1.195,6.953,2.55,10.33,4.364c2.929,1.575,3.298,4.026,3.475,5.204l0.016,0.104c0.164,1.045,0.42,22.381,0.521,31.506
			L187.521,91H120.979z"/>
		<g>
			<path d="M155.746,7.75c5,0,11.536,4.627,11.609,8.398c0.104,5.632,0.455,5.208,0.791,7.54c0.236,1.65,0.715,1.257,0.715,3.142
				c0,1.884-1.033,4.242-1.666,5.183c-0.637,0.944-1.225,2.453-1.305,3.063c-0.416,3.145-2.539,2.42-2.627,4.105
				c-0.082,1.538-0.183,1.34,0.049,2.541c0.195,1.002,0.787-0.066,1.024,1.191c0.236,1.256,0.071,3.104,1.063,3.652
				c2.699,2.041,10.709,3.903,17.14,7.359c2.121,1.141,2.306,2.827,2.461,3.85C185.162,58.796,185.5,89,185.5,89H123
				c0,0,0.335-30.206,0.495-31.227c0.159-1.021,0.172-2.57,2.461-3.849c6.372-3.563,14.405-5.199,17.104-7.242
				c1.071-0.811,0.793-2.122,1.03-3.378c0.24-1.255,1.033-0.392,1.033-1.727c0-1.342,0.254-1.108,0.104-2.893
				c-0.131-1.554-2.285-1.722-2.406-4.629c-0.025-0.615-1.109-1.024-1.747-1.965c-0.636-0.943-1.668-2.591-1.668-4.475
				c0-1.886,0.397-1.416,0.397-3.771s-0.091-3.72,1.271-9.19c0.506-2.039,2.231-4.428,3.96-5.511c0.75-0.47,1.162-0.586,1.636-0.586
				c0.47,0,0.999,0.114,1.978,0.114c1.107,0,2.789-0.146,5.606-0.769C154.729,7.799,155.229,7.75,155.746,7.75 M155.746,3.75
				c-0.814,0-1.605,0.083-2.354,0.248c-2.026,0.448-3.623,0.675-4.744,0.675c-0.392,0-0.672-0.027-0.969-0.055
				c-0.296-0.028-0.629-0.06-1.01-0.06c-1.629,0-2.812,0.604-3.759,1.196c-2.614,1.638-4.966,4.902-5.72,7.938
				c-1.33,5.349-1.395,7.189-1.389,9.749l0.002,0.405c0,0.764-0.041,0.931-0.104,1.185c-0.156,0.641-0.297,1.322-0.297,2.587
				c0,2.888,1.343,5.212,2.352,6.71c0.413,0.609,0.874,1.079,1.262,1.43c0.449,2.058,1.543,3.305,2.246,4.025
				c-0.004,0.034-0.009,0.066-0.015,0.103c-0.017,0.111-0.033,0.226-0.048,0.349c-0.614,0.764-0.905,1.614-1.04,2.318
				c-0.095,0.499-0.136,0.946-0.165,1.321c-1.137,0.568-3.17,1.286-5.008,1.934c-3.275,1.156-7.354,2.595-10.986,4.626
				c-3.832,2.139-4.253,5.21-4.434,6.521l-0.027,0.204c-0.057,0.351-0.205,1.3-0.543,31.796L118.955,93H123h62.5h4.045l-0.045-4.045
				c-0.342-30.493-0.49-31.441-0.546-31.801l-0.013-0.084c-0.19-1.264-0.695-4.618-4.506-6.667
				c-3.502-1.882-7.268-3.263-10.59-4.481c-1.979-0.726-4.174-1.53-5.381-2.155c-0.005-0.05-0.01-0.098-0.014-0.143
				c-0.04-0.438-0.088-0.936-0.184-1.449c-0.134-0.701-0.377-1.33-0.715-1.868c0.905-0.833,1.945-2.222,2.285-4.589
				c0.096-0.334,0.42-1.095,0.672-1.469c0.946-1.406,2.352-4.539,2.352-7.419c0-1.602-0.262-2.501-0.682-3.434
				c-0.016-0.034-0.031-0.068-0.048-0.106l0,0c0.002,0-0.012-0.057-0.028-0.171c-0.115-0.802-0.235-1.354-0.332-1.798
				c-0.188-0.857-0.351-1.598-0.418-5.247C171.23,9.725,162.457,3.75,155.746,3.75L155.746,3.75z"/>
		</g>
	</g>
	<g>
		<path d="M155.911-8.456c0.636-0.096,1.392-0.168,2.219-0.168c1.5,0,2.567,0.348,3.274,1.007c0.72,0.66,1.14,1.595,1.14,2.902
			c0,1.319-0.408,2.399-1.163,3.143c-0.756,0.755-2.003,1.163-3.574,1.163c-0.744,0-1.367-0.036-1.896-0.096V-8.456z M156.955-1.308
			c0.264,0.048,0.646,0.06,1.057,0.06c2.229,0,3.44-1.248,3.44-3.43c0.013-1.907-1.067-3.118-3.272-3.118
			c-0.541,0-0.949,0.048-1.225,0.108V-1.308z"/>
		<path d="M163.868-4.474c0-0.684-0.013-1.271-0.05-1.811h0.925l0.036,1.139h0.048c0.264-0.779,0.899-1.271,1.606-1.271
			c0.121,0,0.205,0.012,0.301,0.036v0.996c-0.108-0.024-0.217-0.036-0.36-0.036c-0.743,0-1.271,0.564-1.415,1.355
			c-0.023,0.144-0.048,0.312-0.048,0.492v3.094h-1.043V-4.474z"/>
		<path d="M170.945-0.48l-0.084-0.731h-0.035c-0.324,0.456-0.947,0.863-1.775,0.863c-1.175,0-1.773-0.828-1.773-1.667
			c0-1.403,1.246-2.171,3.49-2.159v-0.12c0-0.479-0.133-1.343-1.319-1.343c-0.54,0-1.104,0.168-1.513,0.432L167.697-5.9
			c0.479-0.312,1.175-0.516,1.906-0.516c1.774,0,2.207,1.211,2.207,2.375v2.171c0,0.503,0.023,0.995,0.096,1.391L170.945-0.48
			L170.945-0.48z M170.79-3.442c-1.151-0.024-2.458,0.18-2.458,1.307c0,0.684,0.455,1.008,0.995,1.008
			c0.756,0,1.235-0.48,1.403-0.972c0.035-0.108,0.06-0.228,0.06-0.336V-3.442z"/>
		<path d="M173.624-0.48v-5.001h-0.815v-0.803h0.815V-6.56c0-0.815,0.181-1.559,0.672-2.027c0.396-0.384,0.923-0.54,1.415-0.54
			c0.372,0,0.695,0.084,0.898,0.168l-0.144,0.816c-0.155-0.072-0.372-0.132-0.672-0.132c-0.899,0-1.127,0.792-1.127,1.679v0.312
			h1.401v0.803h-1.401v5.001H173.624z"/>
		<path d="M178.423-7.952v1.667h1.513v0.803h-1.513v3.13c0,0.72,0.204,1.127,0.792,1.127c0.275,0,0.479-0.036,0.611-0.072
			l0.048,0.792c-0.203,0.084-0.526,0.144-0.937,0.144c-0.49,0-0.887-0.156-1.139-0.444c-0.3-0.312-0.408-0.828-0.408-1.511v-3.167
			h-0.898v-0.803h0.898v-1.391L178.423-7.952z"/>
	</g>
</g>
</svg>
