<?xml version="1.0" encoding="utf-8"?>
<!-- Generator: Adobe Illustrator 16.0.0, SVG Export Plug-In . SVG Version: 6.00 Build 0)  -->
<!DOCTYPE svg PUBLIC "-//W3C//DTD SVG 1.1//EN" "http://www.w3.org/Graphics/SVG/1.1/DTD/svg11.dtd">
<svg version="1.1" id="Layer_1" xmlns="http://www.w3.org/2000/svg" xmlns:xlink="http://www.w3.org/1999/xlink" x="0px" y="0px"
	 width="100px" height="100px" viewBox="0 0 100 100" enable-background="new 0 0 100 100" xml:space="preserve">
<g id="Captions">
</g>
<g id="Your_Icon">
	<path fill="#FFFFFF" d="M63.79,4L60,8.231v39.765C69.395,51.915,76,61.186,76,72c0,10.811-6.602,20.079-15.99,24H39.99
		C30.6,92.079,24,82.811,24,72c0-10.814,6.605-20.085,16-24.004V8.231L36.031,4H64 M63.58,0H36.031c-1.595,0-3.037,0.947-3.67,2.41
		c-0.634,1.464-0.338,3.163,0.753,4.326L36,9.813v35.648C26.198,50.624,20,60.768,20,72c0,12.143,7.241,23.012,18.448,27.691
		C38.937,99.895,39.46,100,39.99,100h20.02c0.529,0,1.053-0.105,1.541-0.309C72.759,95.011,80,84.143,80,72
		c0-11.232-6.197-21.376-16-26.538V9.696l2.634-3.112c1.007-1.189,1.23-2.854,0.575-4.267C66.555,0.904,65.139,0,63.58,0L63.58,0z"
		/>
	<g>
		<path fill="#FFFFFF" d="M27,70c0,10,5.838,19,14.145,22h17.71C67.161,89,73,80,73,70H27z M38.503,85.614
			c-0.997,0-1.808-0.81-1.808-1.808s0.811-1.81,1.808-1.81c0.998,0,1.808,0.812,1.808,1.81S39.501,85.614,38.503,85.614z
			 M44.002,79.614c-1.824,0-3.307-1.481-3.307-3.308s1.482-3.31,3.307-3.31c1.827,0,3.309,1.481,3.309,3.31
			C47.311,78.133,45.829,79.614,44.002,79.614z M56,87.613c-3.479,0-6.306-2.825-6.306-6.307c0-3.482,2.828-6.311,6.306-6.311
			c3.484,0,6.309,2.827,6.309,6.311C62.309,84.788,59.484,87.613,56,87.613z"/>
	</g>
</g>
</svg>
